<svg id="SvgjsSvg1006" width="1160.2625732421875" height="563.0124816894531" xmlns="http://www.w3.org/2000/svg" version="1.1" xmlns:xlink="http://www.w3.org/1999/xlink" xmlns:svgjs="http://svgjs.com/svgjs"><defs id="SvgjsDefs1007"><marker id="SvgjsMarker1056" markerWidth="16" markerHeight="12" refX="16" refY="6" viewBox="0 0 16 12" orient="auto" markerUnits="userSpaceOnUse"><path id="SvgjsPath1057" d="M0,2 L14,6 L0,11 L0,2" fill="#323232" stroke="#323232" stroke-width="2"></path></marker><marker id="SvgjsMarker1066" markerWidth="16" markerHeight="12" refX="16" refY="6" viewBox="0 0 16 12" orient="auto" markerUnits="userSpaceOnUse"><path id="SvgjsPath1067" d="M0,2 L14,6 L0,11 L0,2" fill="#323232" stroke="#323232" stroke-width="2"></path></marker><marker id="SvgjsMarker1082" markerWidth="16" markerHeight="12" refX="16" refY="6" viewBox="0 0 16 12" orient="auto" markerUnits="userSpaceOnUse"><path id="SvgjsPath1083" d="M0,2 L14,6 L0,11 L0,2" fill="#323232" stroke="#323232" stroke-width="2"></path></marker><marker id="SvgjsMarker1107" markerWidth="16" markerHeight="12" refX="16" refY="6" viewBox="0 0 16 12" orient="auto" markerUnits="userSpaceOnUse"><path id="SvgjsPath1108" d="M0,2 L14,6 L0,11 L0,2" fill="#323232" stroke="#323232" stroke-width="2"></path></marker><marker id="SvgjsMarker1117" markerWidth="16" markerHeight="12" refX="16" refY="6" viewBox="0 0 16 12" orient="auto" markerUnits="userSpaceOnUse"><path id="SvgjsPath1118" d="M0,2 L14,6 L0,11 L0,2" fill="#323232" stroke="#323232" stroke-width="2"></path></marker><marker id="SvgjsMarker1133" markerWidth="16" markerHeight="12" refX="16" refY="6" viewBox="0 0 16 12" orient="auto" markerUnits="userSpaceOnUse"><path id="SvgjsPath1134" d="M0,2 L14,6 L0,11 L0,2" fill="#323232" stroke="#323232" stroke-width="2"></path></marker></defs><g id="SvgjsG1008" transform="translate(76.01249694824219,67.01248931884766)"><path id="SvgjsPath1009" d="M 56.49998474121094 30L 56.49998474121094 471.50000190734863" stroke-dasharray="3,4" stroke="#323232" stroke-width="2" fill="none"></path><path id="SvgjsPath1010" d="M 0 0L 112.99996948242188 0L 112.99996948242188 30L 0 30Z" stroke="#323232" stroke-width="2" fill-opacity="1" fill="#ffffff"></path><g id="SvgjsG1011"><text id="SvgjsText1012" font-family="微软雅黑" text-anchor="middle" font-size="13px" width="84" fill="#323232" font-weight="400" align="middle" anchor="middle" family="微软雅黑" size="13px" weight="400" font-style="" y="5.05" transform="rotate(0)"><tspan id="SvgjsTspan1013" dy="16" x="56.5"><tspan id="SvgjsTspan1014" style="text-decoration:;">MapperPrxoy</tspan></tspan></text></g></g><g id="SvgjsG1015" transform="translate(850.5124816894531,68.51248931884766)"><path id="SvgjsPath1016" d="M 66.75000762939453 30L 66.75000762939453 455" stroke-dasharray="3,4" stroke="#323232" stroke-width="2" fill="none"></path><path id="SvgjsPath1017" d="M 0 0L 133.50001525878906 0L 133.50001525878906 30L 0 30Z" stroke="#323232" stroke-width="2" fill-opacity="1" fill="#ffffff"></path><g id="SvgjsG1018"><text id="SvgjsText1019" font-family="微软雅黑" text-anchor="middle" font-size="13px" width="107" fill="#323232" font-weight="400" align="middle" anchor="middle" family="微软雅黑" size="13px" weight="400" font-style="" y="-2.95" transform="rotate(0)"><tspan id="SvgjsTspan1020" dy="16" x="67"><tspan id="SvgjsTspan1021" style="text-decoration:;">PreparedStateme</tspan></tspan><tspan id="SvgjsTspan1022" dy="16" x="67"><tspan id="SvgjsTspan1023" style="text-decoration:;">ntHandler</tspan></tspan></text></g></g><g id="SvgjsG1024" transform="translate(221.0124969482422,68.51248931884766)"><path id="SvgjsPath1025" d="M 60.5 30L 60.5 458" stroke-dasharray="3,4" stroke="#323232" stroke-width="2" fill="none"></path><path id="SvgjsPath1026" d="M 0 0L 121 0L 121 30L 0 30Z" stroke="#323232" stroke-width="2" fill-opacity="1" fill="#ffffff"></path><g id="SvgjsG1027"><text id="SvgjsText1028" font-family="微软雅黑" text-anchor="middle" font-size="13px" width="98" fill="#323232" font-weight="400" align="middle" anchor="middle" family="微软雅黑" size="13px" weight="400" font-style="" y="5.05" transform="rotate(0)"><tspan id="SvgjsTspan1029" dy="16" x="60.5"><tspan id="SvgjsTspan1030" style="text-decoration:;">MapperMethod</tspan></tspan></text></g></g><g id="SvgjsG1031" transform="translate(395.0124969482422,68.51248931884766)"><path id="SvgjsPath1032" d="M 67.5 30L 67.5 468.50000190734863" stroke-dasharray="3,4" stroke="#323232" stroke-width="2" fill="none"></path><path id="SvgjsPath1033" d="M 0 0L 135 0L 135 30L 0 30Z" stroke="#323232" stroke-width="2" fill-opacity="1" fill="#ffffff"></path><g id="SvgjsG1034"><text id="SvgjsText1035" font-family="微软雅黑" text-anchor="middle" font-size="13px" width="111" fill="#323232" font-weight="400" align="middle" anchor="middle" family="微软雅黑" size="13px" weight="400" font-style="" y="5.05" transform="rotate(0)"><tspan id="SvgjsTspan1036" dy="16" x="67.5"><tspan id="SvgjsTspan1037" style="text-decoration:;">DefaultSqlSession</tspan></tspan></text></g></g><g id="SvgjsG1038" transform="translate(52.512481689453125,25.012466430664062)"><path id="SvgjsPath1039" d="M 0 0L 160 0L 160 40L 0 40Z" stroke="none" fill="none"></path><g id="SvgjsG1040"><text id="SvgjsText1041" font-family="微软雅黑" text-anchor="middle" font-size="13px" width="91" fill="#323232" font-weight="400" align="middle" anchor="middle" family="微软雅黑" size="13px" weight="400" font-style="" y="10.05" transform="rotate(0)"><tspan id="SvgjsTspan1042" dy="16" x="80"><tspan id="SvgjsTspan1043" style="text-decoration:;">对接口进行代理</tspan></tspan></text></g></g><g id="SvgjsG1044" transform="translate(114.01249694824219,120.01248931884766)"><path id="SvgjsPath1045" d="M 0 4Q 0 0 4 0L 26 0Q 30 0 30 4L 30 30Q 30 34 26 34L 4 34Q 0 34 0 30L 0 4Z" stroke="#323232" stroke-width="2" fill-opacity="1" fill="#ffffff"></path></g><g id="SvgjsG1046" transform="translate(207.51248168945312,30.012489318847656)"><path id="SvgjsPath1047" d="M 0 0L 160 0L 160 40L 0 40Z" stroke="none" fill="none"></path><g id="SvgjsG1048"><text id="SvgjsText1049" font-family="微软雅黑" text-anchor="middle" font-size="13px" width="149" fill="#323232" font-weight="400" align="middle" anchor="middle" family="微软雅黑" size="13px" weight="400" font-style="" y="2.05" transform="rotate(0)"><tspan id="SvgjsTspan1050" dy="16" x="80"><tspan id="SvgjsTspan1051" style="text-decoration:;">处理参数，选择session方</tspan></tspan><tspan id="SvgjsTspan1052" dy="16" x="80"><tspan id="SvgjsTspan1053" style="text-decoration:;">法</tspan></tspan></text></g></g><g id="SvgjsG1054"><path id="SvgjsPath1055" d="M25.012496948242188 137.01248931884766L69.51249694824219 137.01248931884766L69.51249694824219 137.01248931884766L114.01249694824219 137.01248931884766" stroke="#323232" stroke-width="2" fill="none" marker-end="url(#SvgjsMarker1056)"></path><rect id="SvgjsRect1058" width="50" height="16" x="35.412506103515625" y="128.41249084472656" fill="#ffffff"></rect><text id="SvgjsText1059" font-family="微软雅黑" text-anchor="middle" font-size="13px" width="50" fill="#323232" font-weight="400" align="top" anchor="middle" family="微软雅黑" size="13px" weight="400" font-style="" y="126.46249084472656" transform="rotate(0)"><tspan id="SvgjsTspan1060" dy="16" x="60.412506103515625"><tspan id="SvgjsTspan1061" style="text-decoration:;">invoke()</tspan></tspan></text></g><g id="SvgjsG1062" transform="translate(266.5124969482422,181.01248931884766)"><path id="SvgjsPath1063" d="M 0 4Q 0 0 4 0L 26 0Q 30 0 30 4L 30 30Q 30 34 26 34L 4 34Q 0 34 0 30L 0 4Z" stroke="#323232" stroke-width="2" fill-opacity="1" fill="#ffffff"></path></g><g id="SvgjsG1064"><path id="SvgjsPath1065" d="M144.0124969482422 137.01248931884766L205.4613856876758 137.01248931884766L205.4613856876758 185.78894836150386L266.9102744271094 185.78894836150386" stroke="#323232" stroke-width="2" fill="none" marker-end="url(#SvgjsMarker1066)"></path><rect id="SvgjsRect1068" width="180" height="16" x="115.4613856876758" y="153.40071884017576" fill="#ffffff"></rect><text id="SvgjsText1069" font-family="微软雅黑" text-anchor="middle" font-size="13px" width="180" fill="#323232" font-weight="400" align="top" anchor="middle" family="微软雅黑" size="13px" weight="400" font-style="" y="151.45071884017577" transform="rotate(0)"><tspan id="SvgjsTspan1070" dy="16" x="205.4613856876758"><tspan id="SvgjsTspan1071" style="text-decoration:;">execute(this.sqlSession, args)</tspan></tspan></text></g><g id="SvgjsG1072" transform="translate(386.5124816894531,25.012466430664062)"><path id="SvgjsPath1073" d="M 0 0L 160 0L 160 40L 0 40Z" stroke="none" fill="none"></path><g id="SvgjsG1074"><text id="SvgjsText1075" font-family="微软雅黑" text-anchor="middle" font-size="13px" width="156" fill="#323232" font-weight="400" align="middle" anchor="middle" family="微软雅黑" size="13px" weight="400" font-style="" y="10.05" transform="rotate(0)"><tspan id="SvgjsTspan1076" dy="16" x="80"><tspan id="SvgjsTspan1077" style="text-decoration:;">通过接口方法，调用执行器</tspan></tspan></text></g></g><g id="SvgjsG1078" transform="translate(447.5124969482422,210.01248931884766)"><path id="SvgjsPath1079" d="M 0 4Q 0 0 4 0L 26 0Q 30 0 30 4L 30 30Q 30 34 26 34L 4 34Q 0 34 0 30L 0 4Z" stroke="#323232" stroke-width="2" fill-opacity="1" fill="#ffffff"></path></g><g id="SvgjsG1080"><path id="SvgjsPath1081" d="M295.48040806200424 212.72691600682322L371.7943326158457 212.72691600682322L371.7943326158457 211.8803734079515L448.10825716968714 211.8803734079515" stroke="#323232" stroke-width="2" fill="none" marker-end="url(#SvgjsMarker1082)"></path><rect id="SvgjsRect1084" width="53" height="16" x="345.2943326158457" y="204.30364470738738" fill="#ffffff"></rect><text id="SvgjsText1085" font-family="微软雅黑" text-anchor="middle" font-size="13px" width="53" fill="#323232" font-weight="400" align="top" anchor="middle" family="微软雅黑" size="13px" weight="400" font-style="" y="202.3536447073874" transform="rotate(0)"><tspan id="SvgjsTspan1086" dy="16" x="371.7943326158457"><tspan id="SvgjsTspan1087" style="text-decoration:;">update()</tspan></tspan></text></g><g id="SvgjsG1088" transform="translate(589.6124954223633,68.51248931884766)"><path id="SvgjsPath1089" d="M 55.400001525878906 30L 55.400001525878906 468.50000190734863" stroke-dasharray="3,4" stroke="#323232" stroke-width="2" fill="none"></path><path id="SvgjsPath1090" d="M 0 0L 110.80000305175781 0L 110.80000305175781 30L 0 30Z" stroke="#323232" stroke-width="2" fill-opacity="1" fill="#ffffff"></path><g id="SvgjsG1091"><text id="SvgjsText1092" font-family="微软雅黑" text-anchor="middle" font-size="13px" width="82" fill="#323232" font-weight="400" align="middle" anchor="middle" family="微软雅黑" size="13px" weight="400" font-style="" y="5.05" transform="rotate(0)"><tspan id="SvgjsTspan1093" dy="16" x="55.5"><tspan id="SvgjsTspan1094" style="text-decoration:;">BaseExecutor</tspan></tspan></text></g></g><g id="SvgjsG1095" transform="translate(630.0124969482422,25.012466430664062)"><path id="SvgjsPath1096" d="M 0 0L 160 0L 160 40L 0 40Z" stroke="none" fill="none"></path><g id="SvgjsG1097"><text id="SvgjsText1098" font-family="微软雅黑" text-anchor="middle" font-size="13px" width="143" fill="#323232" font-weight="400" align="middle" anchor="middle" family="微软雅黑" size="13px" weight="400" font-style="" y="2.05" transform="rotate(0)"><tspan id="SvgjsTspan1099" dy="16" x="80"><tspan id="SvgjsTspan1100" style="text-decoration:;">处理一级缓存</tspan></tspan><tspan id="SvgjsTspan1101" dy="16" x="80"><tspan id="SvgjsTspan1102" style="text-decoration:;">委托基本执行器执行操作</tspan></tspan></text></g></g><g id="SvgjsG1103" transform="translate(630.0124969482422,238.01248931884766)"><path id="SvgjsPath1104" d="M 0 4Q 0 0 4 0L 26 0Q 30 0 30 4L 30 30Q 30 34 26 34L 4 34Q 0 34 0 30L 0 4Z" stroke="#323232" stroke-width="2" fill-opacity="1" fill="#ffffff"></path></g><g id="SvgjsG1105"><path id="SvgjsPath1106" d="M477.1933449039532 241.4389128824966L554.0877286791099 241.4389128824966L554.0877286791099 245.35978567418152L630.9821124542666 245.35978567418152" stroke="#323232" stroke-width="2" fill="none" marker-end="url(#SvgjsMarker1107)"></path><rect id="SvgjsRect1109" width="53" height="16" x="527.5877286791099" y="235.39934927833906" fill="#ffffff"></rect><text id="SvgjsText1110" font-family="微软雅黑" text-anchor="middle" font-size="13px" width="53" fill="#323232" font-weight="400" align="top" anchor="middle" family="微软雅黑" size="13px" weight="400" font-style="" y="233.44934927833907" transform="rotate(0)"><tspan id="SvgjsTspan1111" dy="16" x="554.0877286791099"><tspan id="SvgjsTspan1112" style="text-decoration:;">update()</tspan></tspan></text></g><g id="SvgjsG1113" transform="translate(765.0124969482422,265.01248931884766)"><path id="SvgjsPath1114" d="M 0 4Q 0 0 4 0L 26 0Q 30 0 30 4L 30 30Q 30 34 26 34L 4 34Q 0 34 0 30L 0 4Z" stroke="#323232" stroke-width="2" fill-opacity="1" fill="#ffffff"></path></g><g id="SvgjsG1115"><path id="SvgjsPath1116" d="M659.2935735871322 267.7446345336256L712.5061906870844 267.7446345336256L712.5061906870844 269.43510758058835L765.7188077870367 269.43510758058835" stroke="#323232" stroke-width="2" fill="none" marker-end="url(#SvgjsMarker1117)"></path><rect id="SvgjsRect1119" width="71" height="16" x="677.0061906870844" y="260.58987105710696" fill="#ffffff"></rect><text id="SvgjsText1120" font-family="微软雅黑" text-anchor="middle" font-size="13px" width="71" fill="#323232" font-weight="400" align="top" anchor="middle" family="微软雅黑" size="13px" weight="400" font-style="" y="258.639871057107" transform="rotate(0)"><tspan id="SvgjsTspan1121" dy="16" x="712.5061906870844"><tspan id="SvgjsTspan1122" style="text-decoration:;">doUpdate()</tspan></tspan></text></g><g id="SvgjsG1123" transform="translate(835.4124984741211,28.512489318847656)"><path id="SvgjsPath1124" d="M 0 0L 160 0L 160 40L 0 40Z" stroke="none" fill="none"></path><g id="SvgjsG1125"><text id="SvgjsText1126" font-family="微软雅黑" text-anchor="middle" font-size="13px" width="114" fill="#323232" font-weight="400" align="middle" anchor="middle" family="微软雅黑" size="13px" weight="400" font-style="" y="10.05" transform="rotate(0)"><tspan id="SvgjsTspan1127" dy="16" x="80"><tspan id="SvgjsTspan1128" style="text-decoration:;">编译SQL，执行SQL</tspan></tspan></text></g></g><g id="SvgjsG1129" transform="translate(910.2624893188477,289.01248931884766)"><path id="SvgjsPath1130" d="M 0 4Q 0 0 4 0L 26 0Q 30 0 30 4L 30 30Q 30 34 26 34L 4 34Q 0 34 0 30L 0 4Z" stroke="#323232" stroke-width="2" fill-opacity="1" fill="#ffffff"></path></g><g id="SvgjsG1131"><path id="SvgjsPath1132" d="M794.1934190858844 293.98642888887065L852.5125340392078 293.98642888887065L852.5125340392078 291.5860657551987L910.8316489925312 291.5860657551987" stroke="#323232" stroke-width="2" fill="none" marker-end="url(#SvgjsMarker1133)"></path><rect id="SvgjsRect1135" width="53" height="16" x="826.0125340392078" y="284.7862473220347" fill="#ffffff"></rect><text id="SvgjsText1136" font-family="微软雅黑" text-anchor="middle" font-size="13px" width="53" fill="#323232" font-weight="400" align="top" anchor="middle" family="微软雅黑" size="13px" weight="400" font-style="" y="282.8362473220347" transform="rotate(0)"><tspan id="SvgjsTspan1137" dy="16" x="852.5125340392078"><tspan id="SvgjsTspan1138" style="text-decoration:;">update()</tspan></tspan></text></g><g id="SvgjsG1139" transform="translate(946.2624893188477,282.762490272522)"><path id="SvgjsPath1140" d="M 0 0L 188.55001068115234 0L 188.55001068115234 40L 0 40Z" stroke="none" fill="none"></path><g id="SvgjsG1141"><text id="SvgjsText1142" font-family="微软雅黑" text-anchor="start" font-size="13px" width="177" fill="#323232" font-weight="400" align="middle" anchor="start" family="微软雅黑" size="13px" weight="400" font-style="" y="2.05" transform="rotate(0)"><tspan id="SvgjsTspan1143" dy="16" x="0"><tspan id="SvgjsTspan1144" style="text-decoration:;">1、ps.execute()</tspan></tspan><tspan id="SvgjsTspan1145" dy="16" x="0"><tspan id="SvgjsTspan1146" style="text-decoration:;">2、返回ps.getUpdateCount()</tspan></tspan></text></g></g><g id="SvgjsG1147" transform="translate(724.6124954223633,68.51248931884766)"><path id="SvgjsPath1148" d="M 55.400001525878906 30L 55.400001525878906 468.50000190734863" stroke-dasharray="3,4" stroke="#323232" stroke-width="2" fill="none"></path><path id="SvgjsPath1149" d="M 0 0L 110.80000305175781 0L 110.80000305175781 30L 0 30Z" stroke="#323232" stroke-width="2" fill-opacity="1" fill="#ffffff"></path><g id="SvgjsG1150"><text id="SvgjsText1151" font-family="微软雅黑" text-anchor="middle" font-size="13px" width="82" fill="#323232" font-weight="400" align="middle" anchor="middle" family="微软雅黑" size="13px" weight="400" font-style="" y="-2.95" transform="rotate(0)"><tspan id="SvgjsTspan1152" dy="16" x="55.5"><tspan id="SvgjsTspan1153" style="text-decoration:;">SimpleExecut</tspan></tspan><tspan id="SvgjsTspan1154" dy="16" x="55.5"><tspan id="SvgjsTspan1155" style="text-decoration:;">or</tspan></tspan></text></g></g></svg>